<svg width="28" height="28" viewBox="0 0 28 28" fill="none" xmlns="http://www.w3.org/2000/svg">
<path d="M12.6665 9.99996H15.3332V7.33329H12.6665M13.9998 24.6666C8.11984 24.6666 3.33317 19.88 3.33317 14C3.33317 8.11996 8.11984 3.33329 13.9998 3.33329C19.8798 3.33329 24.6665 8.11996 24.6665 14C24.6665 19.88 19.8798 24.6666 13.9998 24.6666ZM13.9998 0.666626C12.2489 0.666626 10.5151 1.0115 8.89739 1.68157C7.27972 2.35163 5.80986 3.33375 4.57175 4.57187C2.07126 7.07235 0.666504 10.4637 0.666504 14C0.666504 17.5362 2.07126 20.9276 4.57175 23.428C5.80986 24.6662 7.27972 25.6483 8.89739 26.3184C10.5151 26.9884 12.2489 27.3333 13.9998 27.3333C17.5361 27.3333 20.9274 25.9285 23.4279 23.428C25.9284 20.9276 27.3332 17.5362 27.3332 14C27.3332 12.249 26.9883 10.5152 26.3182 8.89751C25.6482 7.27984 24.666 5.80998 23.4279 4.57187C22.1898 3.33375 20.72 2.35163 19.1023 1.68157C17.4846 1.0115 15.7508 0.666626 13.9998 0.666626ZM12.6665 20.6666H15.3332V12.6666H12.6665V20.6666Z" fill="black"/>
</svg>
