<svg width="48" height="48" viewBox="0 0 48 48" fill="none" xmlns="http://www.w3.org/2000/svg">
<path d="M25.9422 33.392C31.6898 33.392 36.3492 31.4503 36.3492 29.055C36.3492 26.6598 31.6898 24.718 25.9422 24.718C20.1945 24.718 15.5352 26.6598 15.5352 29.055C15.5352 31.4503 20.1945 33.392 25.9422 33.392Z" stroke="black" stroke-linecap="round" stroke-linejoin="round"/>
<path d="M36.349 31.837V29.055M15.535 29.055V33.392C15.535 35.787 20.194 37.729 25.942 37.729C27.8703 37.7432 29.7921 37.5039 31.658 37.017M22.687 16.85C20.2238 15.8268 17.5735 15.3308 14.907 15.394C9.16 15.394 4.5 17.335 4.5 19.73C4.5 22.125 9.16 24.067 14.907 24.067C17.5735 24.1303 20.2238 23.6343 22.687 22.611" stroke="black" stroke-linecap="round" stroke-linejoin="round"/>
<path d="M4.5 19.73V24.068C4.5 26.463 9.16 28.405 14.907 28.405C15.163 28.405 15.4167 28.4013 15.668 28.394" stroke="black" stroke-linecap="round" stroke-linejoin="round"/>
<path d="M4.5 24.0681V28.4051C4.5 30.8011 9.16 32.7431 14.907 32.7431C15.1177 32.7431 15.3267 32.7404 15.534 32.7351" stroke="black" stroke-linecap="round" stroke-linejoin="round"/>
<path d="M33.093 18.945C38.8407 18.945 43.5 17.0033 43.5 14.608C43.5 12.2127 38.8407 10.271 33.093 10.271C27.3454 10.271 22.686 12.2127 22.686 14.608C22.686 17.0033 27.3454 18.945 33.093 18.945Z" stroke="black" stroke-linecap="round" stroke-linejoin="round"/>
<path d="M22.6851 14.6079V18.9449C22.6851 21.3409 27.3451 23.2829 33.0931 23.2829C38.8411 23.2829 43.5001 21.3399 43.5001 18.9449V14.6079" stroke="black" stroke-linecap="round" stroke-linejoin="round"/>
<path d="M35.6421 27.4891C40.1571 27.0151 43.5001 25.3121 43.5001 23.2831V18.9451M22.6851 18.9461V23.2831C22.7078 23.8778 22.9601 24.4405 23.3891 24.8531" stroke="black" stroke-linecap="round" stroke-linejoin="round"/>
<path d="M36.3501 31.74C40.5021 31.171 43.5001 29.541 43.5001 27.62V23.283" stroke="black" stroke-linecap="round" stroke-linejoin="round"/>
<path d="M38.5 45.5C42.366 45.5 45.5 42.366 45.5 38.5C45.5 34.634 42.366 31.5 38.5 31.5C34.634 31.5 31.5 34.634 31.5 38.5C31.5 42.366 34.634 45.5 38.5 45.5Z" stroke="black" stroke-linecap="round" stroke-linejoin="round"/>
<path d="M35.8501 42.5V34.5H38.4691C39.1817 34.5 39.8652 34.7831 40.3691 35.287C40.873 35.7909 41.1561 36.4744 41.1561 37.187C41.1561 37.8996 40.873 38.5831 40.3691 39.087C39.8652 39.5909 39.1817 39.874 38.4691 39.874M38.4691 39.874H35.8501M38.4691 39.874L41.0881 42.498" stroke="black" stroke-linecap="round" stroke-linejoin="round"/>
</svg>
