<svg width="35" height="35" viewBox="0 0 35 35" fill="none" xmlns="http://www.w3.org/2000/svg">
<path d="M27.7083 7.29169H7.29159C6.48617 7.29169 5.83325 7.9446 5.83325 8.75002V13.125C5.83325 13.9304 6.48617 14.5834 7.29159 14.5834H27.7083C28.5137 14.5834 29.1666 13.9304 29.1666 13.125V8.75002C29.1666 7.9446 28.5137 7.29169 27.7083 7.29169Z" stroke="black" stroke-linejoin="round"/>
<path d="M27.7083 20.4167H7.29159C6.48617 20.4167 5.83325 21.0696 5.83325 21.875V26.25C5.83325 27.0554 6.48617 27.7084 7.29159 27.7084H27.7083C28.5137 27.7084 29.1666 27.0554 29.1666 26.25V21.875C29.1666 21.0696 28.5137 20.4167 27.7083 20.4167Z" stroke="black" stroke-linejoin="round"/>
</svg>
