<svg width="391" height="257" viewBox="0 0 391 257" fill="none" xmlns="http://www.w3.org/2000/svg">
<path d="M372.25 54.995H349.75C348.8 54.9953 347.885 55.3562 347.191 56.0049C346.497 56.6535 346.075 57.5415 346.01 58.4894C345.945 59.4373 346.243 60.3745 346.842 61.1115C347.442 61.8485 348.299 62.3305 349.24 62.46L349.75 62.495H372.25C373.2 62.4947 374.115 62.1338 374.809 61.4851C375.503 60.8365 375.926 59.9485 375.99 59.0006C376.055 58.0527 375.758 57.1155 375.158 56.3785C374.558 55.6415 373.701 55.1595 372.76 55.03L372.25 54.995ZM364.9 26.095C364.265 25.4607 363.423 25.0754 362.527 25.0094C361.631 24.9433 360.742 25.2008 360.02 25.735L359.6 26.1L342.1 43.6C341.435 44.27 341.048 45.166 341.014 46.1093C340.981 47.0526 341.305 47.9737 341.921 48.6888C342.537 49.4039 343.4 49.8604 344.338 49.9672C345.276 50.074 346.219 49.8233 346.98 49.265L347.4 48.9L364.9 31.4C365.602 30.6969 365.997 29.7438 365.997 28.75C365.997 27.7562 365.602 26.7981 364.9 26.095ZM332.25 15C331.344 15 330.468 15.3282 329.786 15.9238C329.103 16.5195 328.658 17.3422 328.535 18.24L328.5 18.75V41.25C328.5 42.2001 328.861 43.1147 329.51 43.809C330.159 44.5032 331.047 44.9254 331.995 44.9901C332.942 45.0549 333.88 44.7574 334.617 44.1578C335.354 43.5583 335.836 42.7013 335.965 41.76L336 41.25V18.75C336 17.7554 335.605 16.8016 334.902 16.0983C334.199 15.3951 333.245 15 332.25 15Z" fill="#35D931"/>
<rect y="85.8364" width="336.587" height="171.826" rx="20" transform="rotate(-5.24132 0 85.8364)" fill="#35D931"/>
<path d="M61.8733 148.828C54.3449 149.519 48.4034 148.096 44.0488 144.559C39.7406 141.018 37.205 135.088 36.4419 126.769C35.7044 118.73 37.0301 112.493 40.4192 108.058C43.8504 103.572 49.5162 100.967 57.4163 100.242C59.8793 100.016 62.3933 100.09 64.9581 100.464C67.5695 100.834 70.1325 101.442 72.647 102.29L73.6446 113.164C70.9816 111.721 68.5029 110.754 66.2083 110.261C63.9095 109.722 61.8538 109.536 60.0415 109.702C57.532 109.932 55.4369 110.593 53.7563 111.685C52.0713 112.73 50.839 114.366 50.0592 116.593C49.3259 118.816 49.134 121.833 49.4835 125.643C49.8203 129.314 50.5747 132.174 51.7467 134.222C52.9187 136.271 54.4514 137.653 56.3448 138.37C58.2804 139.036 60.5959 139.245 63.2912 138.998C64.8712 138.853 66.6981 138.334 68.7719 137.441C70.8921 136.543 73.1323 135.166 75.4926 133.309L76.4901 144.184C75.2951 144.949 73.8613 145.667 72.1887 146.336C70.5584 146.954 68.8266 147.488 66.9933 147.937C65.2065 148.382 63.4998 148.679 61.8733 148.828ZM106.058 144.775C101.457 145.197 97.3354 144.708 93.6923 143.309C90.0957 141.905 87.1573 139.503 84.8773 136.104C82.6437 132.7 81.2732 128.233 80.7659 122.703C80.0327 114.71 81.5 108.483 85.1679 104.023C88.8822 99.5584 94.3642 96.9936 101.614 96.3285C106.214 95.9065 110.313 96.3975 113.91 97.8015C117.553 99.2012 120.491 101.603 122.725 105.006C125.001 108.359 126.394 112.824 126.906 118.4C127.639 126.393 126.172 132.62 122.504 137.081C118.836 141.541 113.354 144.106 106.058 144.775ZM105.124 134.598C107.216 134.406 108.964 133.8 110.37 132.781C111.776 131.762 112.781 130.193 113.383 128.076C114.028 125.908 114.188 123.058 113.864 119.526C113.544 116.041 112.872 113.314 111.848 111.346C110.871 109.374 109.6 108.038 108.036 107.338C106.468 106.591 104.639 106.314 102.547 106.506C100.456 106.698 98.7096 107.326 97.3078 108.392C95.9017 109.412 94.8742 110.982 94.2253 113.104C93.6228 115.221 93.4836 118.045 93.8076 121.577C94.1273 125.063 94.776 127.791 95.7536 129.764C96.7734 131.685 98.0673 133.019 99.6354 133.766C101.203 134.512 103.033 134.79 105.124 134.598ZM136.517 140.997L132.251 94.5021L145.008 93.3319L162.649 113.224L156.039 113.97L170.242 91.0171L182.65 89.8789L186.915 136.374L174.298 137.531L170.883 100.307L173.441 104.431L160.143 125.755L142.934 106.737L145.303 104.974L148.506 139.897L136.517 140.997ZM196.421 135.502L192.156 89.0068L204.843 87.843L209.108 134.338L196.421 135.502ZM218.613 133.466L214.348 86.9711L224.804 86.0119L250.45 114.237L247.358 122.675L243.834 84.2662L255.406 83.2047L259.671 129.699L250.47 130.544L224.755 103.098L226.879 97.1388L230.115 132.411L218.613 133.466ZM290.126 127.89C285.571 128.308 281.502 127.884 277.918 126.62C274.335 125.355 271.405 123.046 269.129 119.694C266.895 116.29 265.51 111.661 264.973 105.805C264.449 100.089 264.975 95.3546 266.552 91.6015C268.171 87.7977 270.624 84.9016 273.909 82.9131C277.195 80.9247 281.091 79.7237 285.599 79.3102C288.62 79.0331 291.575 79.0666 294.465 79.4107C297.402 79.7505 300.244 80.3334 302.99 81.1592L304.033 92.5215C300.96 91.21 298.175 90.2237 295.678 89.5624C293.222 88.8504 290.717 88.6116 288.161 88.8461C285.744 89.0677 283.693 89.7011 282.009 90.746C280.366 91.7402 279.178 93.3488 278.444 95.5718C277.707 97.7483 277.513 100.742 277.862 104.552C278.203 108.27 278.962 111.176 280.138 113.271C281.31 115.319 282.75 116.71 284.458 117.444C286.212 118.173 288.111 118.444 290.156 118.257C291.318 118.15 292.357 117.985 293.273 117.76C294.232 117.485 295.022 117.154 295.643 116.769L294.984 109.589L288.013 110.229L287.131 100.609L306.719 98.8124L308.739 120.84C305.923 122.832 302.931 124.442 299.763 125.67C296.638 126.847 293.425 127.587 290.126 127.89ZM106.353 227.092C104.029 227.306 101.86 227.411 99.8447 227.408C97.8294 227.406 95.9428 227.274 94.185 227.014C92.4694 226.702 90.8107 226.245 89.2089 225.642L88.1219 213.792C90.6117 215.391 93.268 216.507 96.0908 217.138C98.9094 217.723 101.434 217.913 103.665 217.709C105.431 217.547 106.818 217.091 107.827 216.343C108.836 215.594 109.269 214.43 109.124 212.85C109.026 211.781 108.412 210.97 107.284 210.418C106.197 209.814 104.748 209.338 102.935 208.989C101.164 208.589 99.1529 208.117 96.9006 207.574C95.5567 207.229 94.2276 206.788 92.9132 206.253C91.6452 205.713 90.4786 205 89.4131 204.114C88.3477 203.227 87.4468 202.092 86.7106 200.706C85.9743 199.321 85.5123 197.606 85.3248 195.561C85.1372 193.517 85.3299 191.531 85.903 189.604C86.5224 187.672 87.5329 185.916 88.9343 184.335C90.3357 182.753 92.1852 181.459 94.4828 180.452C96.7761 179.398 99.5028 178.726 102.663 178.436C104.568 178.261 106.298 178.22 107.853 178.311C109.404 178.357 110.874 178.55 112.265 178.891C113.701 179.228 115.149 179.681 116.607 180.25L117.707 192.239C116.603 191.45 115.318 190.725 113.852 190.063C112.432 189.396 110.952 188.852 109.414 188.431C107.876 188.01 106.359 187.821 104.863 187.864C103.604 187.933 102.43 188.158 101.34 188.539C100.293 188.869 99.4503 189.392 98.8129 190.107C98.2219 190.817 97.9776 191.73 98.0799 192.845C98.1865 194.007 98.6436 194.902 99.451 195.531C100.301 196.109 101.421 196.569 102.811 196.91C104.244 197.2 105.818 197.501 107.533 197.812C109.536 198.191 111.36 198.656 113.004 199.208C114.694 199.756 116.167 200.488 117.423 201.404C118.678 202.32 119.7 203.491 120.487 204.919C121.269 206.299 121.757 208.036 121.948 210.127C122.221 213.101 121.767 215.814 120.586 218.265C119.405 220.717 117.599 222.734 115.166 224.316C112.776 225.847 109.838 226.773 106.353 227.092ZM151.806 222.923C147.205 223.345 143.083 222.856 139.44 221.456C135.844 220.052 132.905 217.651 130.625 214.251C128.392 210.848 127.021 206.381 126.514 200.851C125.781 192.858 127.248 186.631 130.916 182.171C134.63 177.706 140.112 175.141 147.362 174.476C151.963 174.054 156.061 174.545 159.658 175.949C163.301 177.349 166.239 179.75 168.473 183.154C170.749 186.507 172.142 190.971 172.654 196.548C173.387 204.541 171.92 210.768 168.252 215.228C164.584 219.689 159.102 222.253 151.806 222.923ZM150.872 212.745C152.964 212.554 154.712 211.948 156.118 210.929C157.525 209.909 158.529 208.341 159.131 206.224C159.776 204.056 159.936 201.206 159.612 197.674C159.292 194.189 158.621 191.462 157.597 189.494C156.619 187.522 155.348 186.186 153.784 185.486C152.216 184.739 150.387 184.462 148.295 184.653C146.204 184.845 144.458 185.474 143.056 186.54C141.65 187.559 140.622 189.13 139.973 191.251C139.371 193.368 139.232 196.193 139.556 199.725C139.875 203.21 140.524 205.939 141.502 207.911C142.521 209.833 143.815 211.167 145.383 211.913C146.952 212.66 148.781 212.937 150.872 212.745ZM203.406 218.189C198.805 218.611 194.683 218.122 191.04 216.723C187.444 215.319 184.505 212.917 182.225 209.518C179.992 206.114 178.621 201.648 178.114 196.117C177.381 188.124 178.848 181.898 182.516 177.437C186.23 172.973 191.712 170.408 198.962 169.743C203.562 169.321 207.661 169.812 211.258 171.216C214.901 172.615 217.839 175.017 220.073 178.42C222.348 181.773 223.742 186.238 224.254 191.815C224.987 199.808 223.52 206.034 219.852 210.495C216.184 214.955 210.702 217.52 203.406 218.189ZM202.472 208.012C204.563 207.82 206.312 207.215 207.718 206.195C209.124 205.176 210.129 203.608 210.731 201.49C211.376 199.322 211.536 196.472 211.212 192.941C210.892 189.455 210.22 186.729 209.196 184.761C208.219 182.788 206.948 181.452 205.384 180.752C203.816 180.005 201.986 179.728 199.895 179.92C197.804 180.112 196.057 180.741 194.656 181.807C193.25 182.826 192.222 184.396 191.573 186.518C190.971 188.635 190.831 191.46 191.155 194.991C191.475 198.477 192.124 201.206 193.101 203.178C194.121 205.099 195.415 206.433 196.983 207.18C198.551 207.927 200.381 208.204 202.472 208.012ZM233.864 214.411L229.599 167.916L240.055 166.957L265.701 195.182L262.609 203.62L259.085 165.211L270.657 164.15L274.922 210.645L265.721 211.489L240.006 184.043L242.13 178.084L245.366 213.356L233.864 214.411Z" fill="white"/>
</svg>
