<svg width="80" height="80" viewBox="0 0 80 80" fill="none" xmlns="http://www.w3.org/2000/svg">
<path d="M40.0333 6.70337C42.6259 6.70353 45.1298 7.64794 47.0767 9.36004L47.59 9.84337L49.9167 12.17C50.5552 12.8044 51.389 13.2049 52.2833 13.3067L52.7333 13.3334H56.0667C58.7907 13.3332 61.4116 14.3753 63.3919 16.2458C65.3722 18.1164 66.5617 20.6737 66.7167 23.3934L66.7333 24V27.3334C66.7333 28.2334 67.04 29.11 67.5933 29.81L67.8933 30.1434L70.2167 32.47C72.1424 34.3849 73.2653 36.9621 73.3563 39.6763C73.4474 42.3904 72.4997 45.0371 70.7067 47.0767L70.2233 47.59L67.8967 49.9167C67.2623 50.5552 66.8618 51.3891 66.76 52.2834L66.7333 52.7334V56.0667C66.7335 58.7908 65.6914 61.4117 63.8209 63.3919C61.9503 65.3722 59.393 66.5618 56.6733 66.7167L56.0667 66.7334H52.7333C51.8346 66.7337 50.9622 67.0366 50.2567 67.5934L49.9233 67.8934L47.5967 70.2167C45.6818 72.1424 43.1046 73.2653 40.3904 73.3564C37.6763 73.4474 35.0296 72.4998 32.99 70.7067L32.4767 70.2234L30.15 67.8967C29.5115 67.2623 28.6776 66.8619 27.7833 66.76L27.3333 66.7334H24C21.2759 66.7335 18.655 65.6915 16.6748 63.8209C14.6945 61.9503 13.5049 59.393 13.35 56.6734L13.3333 56.0667V52.7334C13.333 51.8346 13.0301 50.9622 12.4733 50.2567L12.1733 49.9234L9.84999 47.5967C7.92426 45.6819 6.8014 43.1046 6.71035 40.3905C6.6193 37.6763 7.56692 35.0296 9.35999 32.99L9.84332 32.4767L12.17 30.15C12.8044 29.5115 13.2048 28.6777 13.3067 27.7834L13.3333 27.3334V24L13.35 23.3934C13.4988 20.7782 14.6047 18.3092 16.4569 16.457C18.3092 14.6048 20.7781 13.4989 23.3933 13.35L24 13.3334H27.3333C28.232 13.3331 29.1045 13.0301 29.81 12.4734L30.1433 12.1734L32.47 9.85004C33.4611 8.853 34.6396 8.06172 35.9375 7.5217C37.2355 6.98168 38.6275 6.70357 40.0333 6.70337ZM52.3567 30.9767C51.7316 30.3518 50.8839 30.0007 50 30.0007C49.1161 30.0007 48.2684 30.3518 47.6433 30.9767L36.6667 41.95L32.3567 37.6434L32.0433 37.3667C31.3734 36.8487 30.5313 36.6051 29.6882 36.6854C28.8452 36.7657 28.0643 37.1639 27.5042 37.7991C26.944 38.4343 26.6467 39.2589 26.6726 40.1054C26.6984 40.9519 27.0455 41.7568 27.6433 42.3567L34.31 49.0234L34.6233 49.3C35.2647 49.7975 36.0655 50.0439 36.8756 49.993C37.6857 49.9421 38.4493 49.5973 39.0233 49.0234L52.3567 35.69L52.6333 35.3767C53.1308 34.7354 53.3772 33.9345 53.3263 33.1244C53.2753 32.3143 52.9306 31.5507 52.3567 30.9767Z" fill="#8D2DD8"/>
</svg>
