<svg width="65" height="65" viewBox="0 0 65 65" fill="none" xmlns="http://www.w3.org/2000/svg">
<path d="M43.6719 19.8047V16.7578C43.6719 16.4785 43.4434 16.25 43.1641 16.25H18.7891C18.5098 16.25 18.2812 16.4785 18.2812 16.7578V19.8047C18.2812 20.084 18.5098 20.3125 18.7891 20.3125H43.1641C43.4434 20.3125 43.6719 20.084 43.6719 19.8047ZM18.7891 25.3906C18.5098 25.3906 18.2812 25.6191 18.2812 25.8984V28.9453C18.2812 29.2246 18.5098 29.4531 18.7891 29.4531H30.4688C30.748 29.4531 30.9766 29.2246 30.9766 28.9453V25.8984C30.9766 25.6191 30.748 25.3906 30.4688 25.3906H18.7891ZM42.6562 32.7539C35.0835 32.7539 28.9453 38.8921 28.9453 46.4648C28.9453 54.0376 35.0835 60.1758 42.6562 60.1758C50.229 60.1758 56.3672 54.0376 56.3672 46.4648C56.3672 38.8921 50.229 32.7539 42.6562 32.7539ZM49.48 53.2886C47.6582 55.1104 45.2334 56.1133 42.6562 56.1133C40.0791 56.1133 37.6543 55.1104 35.8325 53.2886C34.0107 51.4668 33.0078 49.042 33.0078 46.4648C33.0078 43.8877 34.0107 41.4629 35.8325 39.6411C37.6543 37.8193 40.0791 36.8164 42.6562 36.8164C45.2334 36.8164 47.6582 37.8193 49.48 39.6411C51.3018 41.4629 52.3047 43.8877 52.3047 46.4648C52.3047 49.042 51.3018 51.4668 49.48 53.2886ZM48.3057 41.6406H45.4937C45.3286 41.6406 45.1763 41.7168 45.0811 41.8501L41.0503 47.4233L39.584 45.3984C39.537 45.333 39.475 45.2799 39.4032 45.2434C39.3314 45.207 39.2519 45.1883 39.1714 45.189H36.3721C35.9595 45.189 35.7183 45.6587 35.9595 45.9951L40.644 52.4761C40.8472 52.7554 41.2598 52.7554 41.4629 52.4761L48.7119 42.4468C48.9595 42.1104 48.7183 41.6406 48.3057 41.6406ZM27.9297 54.082H13.2031V9.39453H48.75V31.2305C48.75 31.5098 48.9785 31.7383 49.2578 31.7383H52.8125C53.0918 31.7383 53.3203 31.5098 53.3203 31.2305V6.85547C53.3203 5.73193 52.4126 4.82422 51.2891 4.82422H10.6641C9.54053 4.82422 8.63281 5.73193 8.63281 6.85547V56.6211C8.63281 57.7446 9.54053 58.6523 10.6641 58.6523H27.9297C28.209 58.6523 28.4375 58.4238 28.4375 58.1445V54.5898C28.4375 54.3105 28.209 54.082 27.9297 54.082Z" fill="black"/>
</svg>
