<svg width="30" height="30" viewBox="0 0 30 30" fill="none" xmlns="http://www.w3.org/2000/svg">
<g clip-path="url(#clip0_29_131)">
<path d="M21.9119 18.258C21.9119 19.518 22.2704 20.0205 23.2079 20.0205C25.2974 20.0205 26.6279 17.358 26.6279 12.93C26.6279 6.16202 21.6959 2.92202 15.5384 2.92202C9.20392 2.92202 3.44242 7.17002 3.44242 15.198C3.44242 22.866 8.48242 27.042 16.2224 27.042C18.8504 27.042 20.6144 26.754 23.3129 25.854L23.8919 28.2645C21.2279 29.13 18.3809 29.3805 16.1864 29.3805C6.03442 29.3805 0.596924 23.8005 0.596924 15.1965C0.596924 6.52052 6.89843 0.616516 15.5744 0.616516C24.6104 0.616516 29.3969 6.01652 29.3969 12.6405C29.3969 18.2565 27.6344 22.5405 22.0904 22.5405C19.5689 22.5405 17.9144 21.5325 17.6984 19.299C17.0504 21.783 15.3224 22.5405 12.9809 22.5405C9.84892 22.5405 7.22092 20.127 7.22092 15.2685C7.22092 10.3725 9.52642 7.34852 13.6664 7.34852C15.8624 7.34852 17.2304 8.21252 17.8394 9.58052L18.8849 7.67252H21.9089V18.258H21.9119ZM17.4854 13.506C17.4854 11.5275 16.0079 10.698 14.7839 10.698C13.4519 10.698 11.9774 11.7765 11.9774 14.946C11.9774 17.466 13.0934 18.87 14.7839 18.87C15.9719 18.87 17.4854 18.114 17.4854 16.026V13.506Z" fill="black"/>
</g>
<defs>
<clipPath id="clip0_29_131">
<rect width="30" height="30" fill="white"/>
</clipPath>
</defs>
</svg>
