<svg width="41" height="47" viewBox="0 0 41 47" fill="none" xmlns="http://www.w3.org/2000/svg">
<g clip-path="url(#clip0_58_36)">
<path d="M30.3849 17.001C33.3763 19.1383 37.041 20.3958 40.999 20.3958V12.7836C40.2498 12.7838 39.5028 12.7056 38.7699 12.5504V18.5424C34.8123 18.5424 31.1481 17.285 28.156 15.1478V30.6824C28.156 38.4536 21.8529 44.7529 14.0783 44.7529C11.1774 44.7529 8.481 43.8764 6.24121 42.373C8.79763 44.9856 12.3627 46.6062 16.3067 46.6062C24.082 46.6062 30.3852 40.3069 30.3852 32.5354V17.001H30.3849ZM33.1348 9.3212C31.606 7.6519 30.6021 5.49459 30.3849 3.10954V2.13051H28.2726C28.8043 5.16179 30.6181 7.75151 33.1348 9.3212ZM11.1586 36.4097C10.3045 35.2905 9.84281 33.921 9.84489 32.5131C9.84489 28.9589 12.7279 26.0771 16.2848 26.0771C16.9475 26.0767 17.6064 26.1785 18.2382 26.3786V18.5962C17.4999 18.4951 16.7548 18.452 16.0101 18.4679V24.5253C15.378 24.325 14.7188 24.2233 14.0557 24.2239C10.499 24.2239 7.61615 27.1054 7.61615 30.6601C7.61615 33.1736 9.05708 35.3496 11.1586 36.4097Z" fill="#FF004F"/>
<path d="M28.1556 15.1477C31.1478 17.2848 34.8117 18.5422 38.7694 18.5422V12.5503C36.5602 12.0799 34.6046 10.9261 33.1342 9.3212C30.6173 7.75135 28.8039 5.16163 28.2722 2.13051H22.7239V32.5351C22.7112 36.0796 19.8332 38.9496 16.284 38.9496C14.1927 38.9496 12.3345 37.9533 11.1579 36.4096C9.05662 35.3496 7.61553 33.1734 7.61553 30.6603C7.61553 27.1059 10.4983 24.2241 14.0551 24.2241C14.7366 24.2241 15.3934 24.3301 16.0095 24.5255V18.4681C8.37131 18.6258 2.22852 24.8636 2.22852 32.5352C2.22852 36.3649 3.75817 39.8366 6.24091 42.3733C8.4807 43.8764 11.1769 44.7532 14.078 44.7532C21.8528 44.7532 28.1557 38.4535 28.1557 30.6824L28.1556 15.1477Z" fill="black"/>
<path d="M38.7698 12.5501V10.9303C36.7776 10.9333 34.8248 10.3757 33.1346 9.32121C34.6307 10.9583 36.6009 12.0873 38.7698 12.5504M28.2724 2.13035C28.2217 1.84073 28.1828 1.54916 28.1558 1.25638V0.277344H20.4949V30.6822C20.4827 34.2265 17.6047 37.0965 14.0553 37.0965C13.0491 37.098 12.0566 36.8628 11.1581 36.4099C12.3348 37.9533 14.1929 38.9495 16.2842 38.9495C19.8333 38.9495 22.7116 36.0798 22.7241 32.5352V2.13051L28.2724 2.13035ZM16.0102 18.4679V16.7432C15.37 16.6557 14.7246 16.6119 14.0785 16.6122C6.30295 16.6122 0 22.9117 0 30.6822C0 35.554 2.47714 39.8475 6.24145 42.373C3.75871 39.8364 2.22905 36.3646 2.22905 32.5351C2.22905 24.8636 8.37169 18.6256 16.0102 18.4679Z" fill="#00F2EA"/>
</g>
<defs>
<clipPath id="clip0_58_36">
<rect width="41" height="46.4453" fill="white" transform="translate(0 0.277344)"/>
</clipPath>
</defs>
</svg>
