<svg width="35" height="35" viewBox="0 0 35 35" fill="none" xmlns="http://www.w3.org/2000/svg">
<g clip-path="url(#clip0_24_127)">
<path d="M9.44075 31H4V27.5C4 25.6435 4.7375 23.863 6.05025 22.5503C7.36301 21.2375 9.14348 20.5 11 20.5H12.5225M19.75 9.125C19.75 9.92935 19.5916 10.7258 19.2838 11.4689C18.976 12.2121 18.5248 12.8873 17.956 13.456C17.3873 14.0248 16.7121 14.476 15.9689 14.7838C15.2258 15.0916 14.4293 15.25 13.625 15.25C12.8207 15.25 12.0242 15.0916 11.2811 14.7838C10.5379 14.476 9.86273 14.0248 9.29397 13.456C8.72521 12.8873 8.27405 12.2121 7.96624 11.4689C7.65843 10.7258 7.5 9.92935 7.5 9.125C7.5 7.50055 8.14531 5.94263 9.29397 4.79397C10.4426 3.64531 12.0005 3 13.625 3C15.2495 3 16.8074 3.64531 17.956 4.79397C19.1047 5.94263 19.75 7.50055 19.75 9.125ZM33.6625 13.5875C33.9877 13.9125 34.2456 14.2984 34.4216 14.7232C34.5976 15.1479 34.6881 15.6031 34.6881 16.0629C34.6881 16.5226 34.5976 16.9779 34.4216 17.4026C34.2456 17.8273 33.9877 18.2132 33.6625 18.5382L22.5255 29.6753L16.3375 30.9125L17.5747 24.7245L28.7118 13.5875C29.0368 13.2623 29.4227 13.0044 29.8474 12.8284C30.2721 12.6524 30.7274 12.5619 31.1871 12.5619C31.6469 12.5619 32.1021 12.6524 32.5268 12.8284C32.9516 13.0044 33.3375 13.2623 33.6625 13.5875Z" stroke="#222222" stroke-width="2.4" stroke-linecap="round" stroke-linejoin="round"/>
</g>
<defs>
<clipPath id="clip0_24_127">
<rect width="35" height="35" fill="white"/>
</clipPath>
</defs>
</svg>
