<svg width="51" height="51" viewBox="0 0 51 51" fill="none" xmlns="http://www.w3.org/2000/svg">
<path d="M36.8475 11.6025C36.3432 11.6025 35.8501 11.7521 35.4308 12.0323C35.0114 12.3125 34.6846 12.7107 34.4916 13.1767C34.2986 13.6426 34.2481 14.1553 34.3465 14.65C34.4449 15.1446 34.6878 15.599 35.0444 15.9556C35.401 16.3122 35.8554 16.5551 36.35 16.6535C36.8447 16.7519 37.3574 16.7014 37.8233 16.5084C38.2893 16.3154 38.6875 15.9886 38.9677 15.5692C39.2479 15.1499 39.3975 14.6568 39.3975 14.1525C39.3975 13.4762 39.1288 12.8276 38.6506 12.3494C38.1724 11.8712 37.5238 11.6025 36.8475 11.6025ZM46.6225 16.745C46.5812 14.9819 46.251 13.2375 45.645 11.5812C45.1047 10.1642 44.2637 8.88097 43.18 7.82C42.1277 6.73078 40.8416 5.89513 39.4187 5.37625C37.7669 4.75184 36.0206 4.41407 34.255 4.3775C32.0025 4.25 31.28 4.25 25.5 4.25C19.72 4.25 18.9975 4.25 16.745 4.3775C14.9794 4.41407 13.2331 4.75184 11.5812 5.37625C10.1611 5.90038 8.87598 6.73532 7.82 7.82C6.73078 8.87225 5.89513 10.1584 5.37625 11.5812C4.75184 13.2331 4.41407 14.9794 4.3775 16.745C4.25 18.9975 4.25 19.72 4.25 25.5C4.25 31.28 4.25 32.0025 4.3775 34.255C4.41407 36.0206 4.75184 37.7669 5.37625 39.4187C5.89513 40.8416 6.73078 42.1277 7.82 43.18C8.87598 44.2647 10.1611 45.0996 11.5812 45.6237C13.2331 46.2482 14.9794 46.5859 16.745 46.6225C18.9975 46.75 19.72 46.75 25.5 46.75C31.28 46.75 32.0025 46.75 34.255 46.6225C36.0206 46.5859 37.7669 46.2482 39.4187 45.6237C40.8416 45.1049 42.1277 44.2692 43.18 43.18C44.2685 42.123 45.1102 40.8387 45.645 39.4187C46.251 37.7625 46.5812 36.0181 46.6225 34.255C46.6225 32.0025 46.75 31.28 46.75 25.5C46.75 19.72 46.75 18.9975 46.6225 16.745ZM42.7975 34C42.782 35.3489 42.5377 36.6854 42.075 37.9525C41.7357 38.8773 41.1907 39.7129 40.4812 40.3963C39.792 41.0986 38.9581 41.6424 38.0375 41.99C36.7704 42.4527 35.4339 42.697 34.085 42.7125C31.96 42.8188 31.1737 42.84 25.585 42.84C19.9963 42.84 19.21 42.84 17.085 42.7125C15.6844 42.7387 14.2898 42.5231 12.9625 42.075C12.0823 41.7097 11.2866 41.1672 10.625 40.4812C9.91969 39.7986 9.38154 38.9623 9.0525 38.0375C8.53369 36.7522 8.24594 35.3854 8.2025 34C8.2025 31.875 8.075 31.0888 8.075 25.5C8.075 19.9113 8.075 19.125 8.2025 17C8.21202 15.621 8.46377 14.2544 8.94625 12.9625C9.32035 12.0656 9.89456 11.266 10.625 10.625C11.2706 9.89436 12.0685 9.31408 12.9625 8.925C14.2578 8.45759 15.623 8.21329 17 8.2025C19.125 8.2025 19.9113 8.075 25.5 8.075C31.0888 8.075 31.875 8.075 34 8.2025C35.3489 8.21797 36.6854 8.46227 37.9525 8.925C38.9182 9.28339 39.7849 9.86605 40.4812 10.625C41.1776 11.2778 41.7217 12.0758 42.075 12.9625C42.5473 14.2565 42.7917 15.6225 42.7975 17C42.9037 19.125 42.925 19.9113 42.925 25.5C42.925 31.0888 42.9037 31.875 42.7975 34ZM25.5 14.5988C23.3448 14.603 21.2393 15.2459 19.4494 16.4463C17.6595 17.6467 16.2656 19.3507 15.4437 21.343C14.6219 23.3353 14.409 25.5265 14.8321 27.6397C15.2551 29.753 16.295 31.6934 17.8204 33.2158C19.3458 34.7383 21.2883 35.7744 23.4023 36.1933C25.5164 36.6122 27.7072 36.3951 29.6979 35.5694C31.6886 34.7437 33.3899 33.3464 34.5868 31.5542C35.7837 29.762 36.4225 27.6552 36.4225 25.5C36.4253 24.0658 36.1446 22.6453 35.5964 21.32C35.0482 19.9948 34.2434 18.791 33.2283 17.7779C32.2133 16.7647 31.0079 15.9623 29.6816 15.4167C28.3552 14.8711 26.9341 14.5931 25.5 14.5988ZM25.5 32.5763C24.1005 32.5763 22.7323 32.1612 21.5686 31.3837C20.405 30.6061 19.498 29.501 18.9624 28.208C18.4268 26.9149 18.2867 25.4922 18.5597 24.1195C18.8328 22.7468 19.5067 21.486 20.4963 20.4963C21.486 19.5067 22.7468 18.8328 24.1195 18.5597C25.4922 18.2867 26.9149 18.4268 28.208 18.9624C29.501 19.498 30.6061 20.405 31.3837 21.5686C32.1612 22.7323 32.5763 24.1005 32.5763 25.5C32.5763 26.4293 32.3932 27.3494 32.0376 28.208C31.682 29.0665 31.1608 29.8466 30.5037 30.5037C29.8466 31.1608 29.0665 31.682 28.208 32.0376C27.3494 32.3932 26.4293 32.5763 25.5 32.5763Z" fill="url(#paint0_linear_58_30)"/>
<defs>
<linearGradient id="paint0_linear_58_30" x1="41.4375" y1="8.76549" x2="7.17187" y2="45.4217" gradientUnits="userSpaceOnUse">
<stop stop-color="#8D2DD8"/>
<stop offset="0.493767" stop-color="#D82D7E"/>
<stop offset="1" stop-color="#FEEE5D"/>
</linearGradient>
</defs>
</svg>
