<svg width="51" height="51" viewBox="0 0 51 51" fill="none" xmlns="http://www.w3.org/2000/svg">
<path d="M35.275 29.75C34.85 29.5375 32.0875 28.2625 31.6625 28.05C31.2375 27.8375 30.8125 27.8375 30.3875 28.2625C29.9625 28.6875 29.1125 29.9625 28.6875 30.3875C28.475 30.8125 28.05 30.8125 27.625 30.6C26.1375 29.9625 24.65 29.1125 23.375 28.05C22.3125 26.9875 21.25 25.7125 20.4 24.4375C20.1875 24.0125 20.4 23.5875 20.6125 23.375C20.825 23.1625 21.0375 22.7375 21.4625 22.525C21.675 22.3125 21.8875 21.8875 21.8875 21.675C22.1 21.4625 22.1 21.0375 21.8875 20.825C21.675 20.6125 20.6125 18.0625 20.1875 17C19.975 15.5125 19.55 15.5125 19.125 15.5125H18.0625C17.6375 15.5125 17 15.9375 16.7875 16.15C15.5125 17.425 14.875 18.9125 14.875 20.6125C15.0875 22.525 15.725 24.4375 17 26.1375C19.3375 29.5375 22.3125 32.3 25.925 34C26.9875 34.425 27.8375 34.85 28.9 35.0625C29.9625 35.4875 31.025 35.4875 32.3 35.275C33.7875 35.0625 35.0625 34 35.9125 32.725C36.3375 31.875 36.3375 31.025 36.125 30.175L35.275 29.75ZM40.5875 10.4125C32.3 2.12499 18.9125 2.12499 10.625 10.4125C3.825 17.2125 2.55 27.625 7.225 35.9125L4.25 46.75L15.5125 43.775C18.7 45.475 22.1 46.325 25.5 46.325C37.1875 46.325 46.5375 36.975 46.5375 25.2875C46.75 19.7625 44.4125 14.45 40.5875 10.4125ZM34.85 40.1625C32.0875 41.8625 28.9 42.925 25.5 42.925C22.3125 42.925 19.3375 42.075 16.575 40.5875L15.9375 40.1625L9.35 41.8625L11.05 35.4875L10.625 34.85C5.525 26.35 8.075 15.725 16.3625 10.4125C24.65 5.09999 35.275 7.86249 40.375 15.9375C45.475 24.225 43.1375 35.0625 34.85 40.1625Z" fill="#35D931"/>
</svg>
